<?xml version="1.0" encoding="UTF-8" standalone="no"?>
<!-- Created with Inkscape (http://www.inkscape.org/) -->

<svg
   xmlns:dc="http://purl.org/dc/elements/1.1/"
   xmlns:cc="http://creativecommons.org/ns#"
   xmlns:rdf="http://www.w3.org/1999/02/22-rdf-syntax-ns#"
   xmlns:svg="http://www.w3.org/2000/svg"
   xmlns="http://www.w3.org/2000/svg"
   xmlns:sodipodi="http://sodipodi.sourceforge.net/DTD/sodipodi-0.dtd"
   xmlns:inkscape="http://www.inkscape.org/namespaces/inkscape"
   version="1.1"
   id="svg2"
   xml:space="preserve"
   width="184.198"
   height="83.808647"
   viewBox="0 0 184.19799 83.808648"
   sodipodi:docname="logo.svg"
   inkscape:version="0.92.3 (2405546, 2018-03-11)"><metadata
     id="metadata8"><rdf:RDF><cc:Work
         rdf:about=""><dc:format>image/svg+xml</dc:format><dc:type
           rdf:resource="http://purl.org/dc/dcmitype/StillImage" /><dc:title></dc:title></cc:Work></rdf:RDF></metadata><defs
     id="defs6"><clipPath
       clipPathUnits="userSpaceOnUse"
       id="clipPath18"><path
         d="M 0,595.28 H 841.89 V 0 H 0 Z"
         id="path16"
         inkscape:connector-curvature="0" /></clipPath></defs><sodipodi:namedview
     pagecolor="#ffffff"
     bordercolor="#666666"
     borderopacity="1"
     objecttolerance="10"
     gridtolerance="10"
     guidetolerance="10"
     inkscape:pageopacity="0"
     inkscape:pageshadow="2"
     inkscape:window-width="1528"
     inkscape:window-height="829"
     id="namedview4"
     showgrid="false"
     inkscape:zoom="1.6820038"
     inkscape:cx="145.40409"
     inkscape:cy="1.9702703"
     inkscape:window-x="190"
     inkscape:window-y="61"
     inkscape:window-maximized="0"
     inkscape:current-layer="g10" /><g
     id="g10"
     inkscape:groupmode="layer"
     inkscape:label="B-Line_Logo_CMYK"
     transform="matrix(1.3333333,0,0,-1.3333333,-324.68413,506.36378)"><g
       id="g12"
       style="fill:#ffffff"><g
         id="g14"
         clip-path="url(#clipPath18)"
         style="fill:#ffffff"><g
           id="g20"
           transform="translate(251.4131,338.5088)"
           style="fill:#ffffff"><path
             d="m 0,0 c 0,-4.822 3.796,-5.746 5.182,-5.746 4.719,0 7.848,3.899 7.848,9.799 0,7.181 -4.411,10.311 -8.72,10.311 C 2.822,14.364 1.283,13.8 0.667,13.492 0,13.133 0,12.261 0,11.389 Z m -4.771,20.726 c 0,2.564 -0.256,3.283 -2.257,3.385 -0.41,0 -0.872,0.103 -0.872,0.616 0,0.461 0.359,0.615 0.821,0.717 1.385,0.36 2.719,0.719 6.207,2.156 0.205,0.102 0.462,0.153 0.667,0.153 0.462,0 0.616,-0.308 0.616,-0.923 0,-1.283 -0.206,-2.668 -0.206,-5.592 v -3.693 c 0,-0.975 -0.051,-1.693 -0.051,-1.899 0,-0.461 0.103,-0.769 0.41,-0.769 0.462,0 1.334,0.462 1.591,0.564 2.103,1.129 3.437,1.693 5.797,1.693 5.438,0 10.516,-4.873 10.516,-11.747 0,-8.568 -7.284,-12.364 -12.774,-12.364 -3.437,0 -5.694,1.128 -7.233,1.898 -0.103,0.052 -0.359,0.205 -0.564,0.205 -0.308,0 -0.462,0 -1.488,-2.205 -0.307,-0.565 -0.564,-0.77 -0.872,-0.77 -0.513,0 -0.718,0.411 -0.718,0.872 0,0.051 0.41,4.156 0.41,4.925 z"
             style="fill:#ffffff;fill-opacity:1;fill-rule:nonzero;stroke:none"
             id="path22"
             inkscape:connector-curvature="0" /></g><g
           id="g24"
           transform="translate(303.6357,358.7725)"
           style="fill:#ffffff"><path
             d="m 0,0 c 0,1.539 0,3.283 -1.847,3.437 -0.923,0.102 -1.179,0.102 -1.179,0.667 0,0.461 0.153,0.513 1.641,0.872 1.334,0.307 3.489,1.077 4.412,1.539 1.231,0.616 1.334,0.667 1.59,0.667 0.565,0 0.565,-0.565 0.565,-1.078 0,-0.666 -0.206,-3.847 -0.206,-4.412 V -21.7 c 0,-2.873 0,-3.438 2.206,-3.745 1.283,-0.154 1.539,-0.41 1.539,-0.872 0,-0.616 -0.513,-0.616 -0.872,-0.616 -1.385,0 -2.411,0.205 -5.387,0.205 -3.385,0 -4.001,-0.205 -5.078,-0.205 -0.616,0 -1.129,0 -1.129,0.667 0,0.462 0.411,0.667 1.539,0.821 C 0,-25.138 0,-24.573 0,-21.751 Z"
             style="fill:#ffffff;fill-opacity:1;fill-rule:nonzero;stroke:none"
             id="path26"
             inkscape:connector-curvature="0" /></g><g
           id="g28"
           transform="translate(320.667,358.5674)"
           style="fill:#ffffff"><path
             d="m 0,0 c -1.642,0 -2.873,1.282 -2.873,2.77 0,1.436 1.18,2.822 2.873,2.822 1.59,0 2.822,-1.283 2.822,-2.873 C 2.822,1.385 1.693,0 0,0 m -2.462,-11.8 c 0,2.617 -0.462,3.335 -2.309,3.438 -0.154,0 -0.974,0.051 -0.974,0.667 0,0.359 0.205,0.615 0.82,0.82 2.463,0.821 3.643,1.488 4.515,2.104 0.359,0.256 1.949,1.641 2.36,1.641 0.564,0 0.564,-0.667 0.564,-1.795 v -16.57 c 0,-2.821 0,-3.438 2.206,-3.745 1.282,-0.154 1.539,-0.41 1.539,-0.872 0,-0.616 -0.513,-0.616 -0.872,-0.616 -0.77,0 -2.976,0.206 -5.335,0.206 -2.155,0 -4.515,-0.206 -5.387,-0.206 -0.359,0 -0.872,0 -0.872,0.667 0,0.462 0.41,0.667 1.539,0.821 2.206,0.307 2.206,0.872 2.206,3.694 z"
             style="fill:#ffffff;fill-opacity:1;fill-rule:nonzero;stroke:none"
             id="path30"
             inkscape:connector-curvature="0" /></g><g
           id="g32"
           transform="translate(347.9072,346.3574)"
           style="fill:#ffffff"><path
             d="m 0,0 c 0,2.411 0,6.259 -5.027,6.259 -1.539,0 -3.13,-0.565 -4.309,-1.744 -0.77,-0.77 -0.976,-1.642 -0.976,-2.873 V -9.233 c 0,-2.873 0,-3.49 2.207,-3.797 1.282,-0.154 1.539,-0.41 1.539,-0.872 0,-0.616 -0.514,-0.616 -0.872,-0.616 -0.77,0 -4.413,0.205 -5.387,0.205 -0.77,0 -4.463,-0.205 -5.284,-0.205 -0.411,0 -0.923,0 -0.923,0.667 0,0.462 0.41,0.667 1.539,0.821 2.205,0.307 2.205,0.872 2.205,3.745 v 9.849 c 0,2.412 0,3.54 -1.539,3.643 -0.82,0.051 -1.384,0.051 -1.384,0.718 0,0.307 0.153,0.513 0.718,0.667 0.359,0.102 3.642,1.488 5.232,3.335 0.359,0.41 0.77,0.923 1.129,0.923 0.462,0 0.564,-0.462 0.564,-0.923 V 6.413 c 0,-0.872 0,-1.026 0.205,-1.026 0.308,0 0.565,0.154 0.718,0.307 3.13,2.924 4.669,3.591 7.541,3.591 3.386,0 7.08,-1.847 7.08,-6.617 V -9.233 c 0,-2.873 0,-3.49 2.206,-3.797 1.282,-0.154 1.539,-0.41 1.539,-0.872 0,-0.616 -0.513,-0.616 -0.872,-0.616 -0.769,0 -4.515,0.205 -5.335,0.205 -0.77,0 -4.515,-0.205 -5.387,-0.205 -0.359,0 -0.872,0 -0.872,0.667 0,0.462 0.359,0.667 1.539,0.821 C 0,-12.723 0,-12.158 0,-9.285 Z"
             style="fill:#ffffff;fill-opacity:1;fill-rule:nonzero;stroke:none"
             id="path34"
             inkscape:connector-curvature="0" /></g><g
           id="g36"
           transform="translate(372.8896,348.8711)"
           style="fill:#ffffff"><path
             d="M 0,0 C 2.206,0 3.488,1.129 3.488,2.463 3.488,5.489 0,5.592 -0.77,5.592 -5.386,5.592 -6.977,1.386 -6.977,0.564 -6.977,0 -6.771,0 -5.592,0 Z m -6.31,-1.59 c -0.872,0 -1.334,-0.052 -1.334,-2.719 0,-5.746 3.796,-10.158 9.081,-10.158 2.308,0 4.411,0.872 5.643,2.053 0.769,0.769 0.82,0.82 1.128,0.82 0.359,0 0.462,-0.307 0.462,-0.462 0,-0.769 -3.591,-5.283 -10.107,-5.283 -6.771,0 -11.901,4.463 -11.901,11.594 0,7.592 5.746,12.516 12.722,12.516 7.747,0 9.388,-5.694 9.388,-7.438 0,-0.923 -0.564,-0.923 -1.385,-0.923 z"
             style="fill:#ffffff;fill-opacity:1;fill-rule:nonzero;stroke:none"
             id="path38"
             inkscape:connector-curvature="0" /></g><g
           id="g40"
           transform="translate(284.3745,377.6191)"
           style="fill:#ffffff"><path
             d="M 0,0 V -58.549"
             style="fill:#ffffff;stroke:#ffffff;stroke-width:4.24700022;stroke-linecap:round;stroke-linejoin:miter;stroke-miterlimit:4;stroke-dasharray:none;stroke-opacity:1"
             id="path42"
             inkscape:connector-curvature="0" /></g><g
           id="g44"
           transform="translate(307.125,312.5615)"
           style="fill:#ffffff" /><g
           id="g48"
           transform="translate(318.853,303.167)"
           style="fill:#ffffff" /><g
           id="g52"
           transform="translate(322.6191,303.167)"
           style="fill:#ffffff" /><g
           id="g56"
           transform="translate(340.4692,303.167)"
           style="fill:#ffffff" /><g
           id="g60"
           transform="translate(344.9834,308.4639)"
           style="fill:#ffffff" /><g
           id="g64"
           transform="translate(357.1152,303.8525)"
           style="fill:#ffffff" /><g
           id="g68"
           transform="translate(362.5352,303.167)"
           style="fill:#ffffff" /><g
           id="g72"
           transform="translate(373.7012,304.1484)"
           style="fill:#ffffff" /><g
           id="g76"
           transform="translate(382.5156,308.9004)"
           style="fill:#ffffff" /><g
           id="g80"
           transform="translate(389.4297,308.4639)"
           style="fill:#ffffff" /><g
           id="g84"
           transform="translate(406.2354,303.167)"
           style="fill:#ffffff" /><g
           id="g88"
           transform="translate(409.3013,303.167)"
           style="fill:#ffffff" /><g
           id="g92"
           transform="translate(419.8145,308.9004)"
           style="fill:#ffffff" /><g
           id="g96"
           transform="translate(439.3301,303.167)"
           style="fill:#ffffff" /><g
           id="g100"
           transform="translate(443.9521,303.167)"
           style="fill:#ffffff" /><g
           id="g104"
           transform="translate(454.4648,304.1484)"
           style="fill:#ffffff" /><g
           id="g108"
           transform="translate(465.9287,312.5459)"
           style="fill:#ffffff" /><g
           id="g114"
           transform="translate(475.8789,312.5615)"
           style="fill:#ffffff" /><g
           id="g118"
           transform="translate(480.7676,303.167)"
           style="fill:#ffffff" /></g></g></g></svg>